<svg width="18" height="17" viewBox="0 0 18 17" fill="none" xmlns="http://www.w3.org/2000/svg">
<path d="M7.81749 0.694211C8.11489 -0.231157 9.42417 -0.231158 9.72157 0.69421L11.1003 4.98421C11.2332 5.39778 11.618 5.67824 12.0524 5.67824H16.5372C17.5032 5.67824 17.9078 6.91228 17.1291 7.48418L13.4821 10.163C13.1355 10.4176 12.9905 10.8654 13.1221 11.2749L14.5107 15.5955C14.8074 16.5187 13.7482 17.2815 12.9666 16.7074L9.36152 14.0594C9.00927 13.8006 8.52979 13.8006 8.17754 14.0594L4.57242 16.7074C3.79086 17.2815 2.73168 16.5187 3.02839 15.5955L4.41698 11.2749C4.54858 10.8654 4.40359 10.4176 4.05692 10.163L0.409917 7.48418C-0.368687 6.91228 0.0358311 5.67824 1.00191 5.67824H5.4867C5.9211 5.67824 6.30582 5.39778 6.43874 4.98421L7.81749 0.694211Z" fill="currentColor"/>
</svg>
